<?xml version="1.0" standalone="no"?>
<!DOCTYPE svg PUBLIC "-//W3C//DTD SVG 20010904//EN"
 "http://www.w3.org/TR/2001/REC-SVG-20010904/DTD/svg10.dtd">
<svg version="1.0" xmlns="http://www.w3.org/2000/svg"
 width="391.000000pt" height="391.000000pt" viewBox="0 0 391.000000 391.000000"
 preserveAspectRatio="xMidYMid meet">
<metadata>
Created by potrace 1.14, written by Peter Selinger 2001-2017
</metadata>
<g transform="translate(0.000000,391.000000) scale(0.100000,-0.100000)"
fill="#000000" stroke="none">
<path d="M1799 3896 c-2 -2 -31 -6 -64 -10 -52 -5 -113 -15 -193 -31 -120 -23
-328 -97 -457 -163 -95 -48 -211 -117 -233 -139 -7 -7 -17 -13 -20 -13 -4 0
-18 -10 -32 -23 -14 -13 -33 -27 -42 -33 -28 -15 -235 -204 -224 -204 3 0 -8
-12 -22 -28 -69 -70 -125 -146 -239 -322 -56 -87 -177 -380 -198 -479 -2 -9
-10 -45 -19 -81 -14 -63 -18 -83 -33 -192 -10 -68 -10 -375 0 -453 39 -314
144 -599 320 -862 91 -136 248 -315 341 -386 15 -12 39 -32 52 -45 49 -47 244
-171 355 -227 182 -90 425 -164 634 -192 74 -10 388 -9 470 0 33 4 103 17 155
28 52 11 106 22 119 25 14 3 28 7 33 10 4 3 16 7 26 9 66 12 376 148 427 187
6 4 53 36 106 71 53 35 111 77 129 93 106 92 210 194 255 250 11 15 30 38 43
53 12 14 35 44 50 66 15 22 29 42 32 45 18 16 95 152 143 250 52 107 132 325
142 388 3 15 11 59 19 97 8 39 17 86 21 105 11 59 14 411 4 475 -9 58 -30 188
-35 211 -8 43 -62 214 -90 289 -61 157 -194 388 -289 500 -14 17 -42 50 -63
74 -30 36 -125 131 -186 187 -44 41 -171 131 -281 202 -98 62 -389 184 -495
208 -11 2 -29 6 -41 9 -11 2 -28 6 -37 9 -9 3 -33 8 -52 11 -19 3 -48 8 -65
11 -16 3 -43 7 -60 10 -37 6 -401 15 -406 10z"/>
</g>
</svg>
